<svg width="604" height="192" viewBox="0 0 604 192" fill="none" xmlns="http://www.w3.org/2000/svg">
<path fill-rule="evenodd" clip-rule="evenodd" d="M269.118 164.154V175.336C272.73 175.465 274.731 172.918 274.731 169.767C274.731 166.702 272.73 164.198 269.118 164.154ZM262.504 175.249V164.284C258.98 164.198 257.109 166.874 257.109 169.767C257.109 172.702 259.372 175.077 262.504 175.249ZM262.504 181.336C255.587 180.992 250.452 176.674 250.452 169.767C250.452 162.902 255.978 158.586 262.504 158.154V153.922H269.118V158.067C275.906 158.283 281.431 162.686 281.431 169.767C281.431 177.062 275.993 181.164 269.118 181.38V185.092H262.504V181.336Z" fill="#CC9933"/>
<path fill-rule="evenodd" clip-rule="evenodd" d="M291.568 185.093H287.173V178.92H291.176C292.09 179.006 293.352 178.444 293.526 177.711C290.393 171.062 286.303 162.73 283.127 156.082V154.873H290.045L297.224 170.069L304.316 154.873H311.322V156.038L299.487 180.689C298.094 183.496 294.744 185.093 291.568 185.093Z" fill="#CC9933"/>
<path fill-rule="evenodd" clip-rule="evenodd" d="M331.552 173.653H320.806V185.094H313.974V154.83H320.849V167.134H331.552V154.83H338.384V185.094H331.552V173.653Z" fill="#CC9933"/>
<path fill-rule="evenodd" clip-rule="evenodd" d="M352.611 178.704H361.922V161.306H355.874C355.439 167.825 354.438 174.257 352.611 178.704ZM349.261 154.873H368.84V178.704H372.321V192H365.533V185.093H349.043V192H342.256V178.704H345.258C348.042 173.609 349.086 164.932 349.261 154.873Z" fill="#CC9933"/>
<path fill-rule="evenodd" clip-rule="evenodd" d="M385.329 173.307H392.813L389.115 163.809L385.329 173.307ZM395.119 179.437H383.023L380.717 185.092H374.06L386.722 154.743H391.943L404.039 185.092H397.207L395.119 179.437Z" fill="#CC9933"/>
<path fill-rule="evenodd" clip-rule="evenodd" d="M414.002 178.704H424.401V154.873H431.319V178.704H436.106V192H429.492V185.093H407.127V154.873H414.002V178.704Z" fill="#CC9933"/>
<path fill-rule="evenodd" clip-rule="evenodd" d="M439.019 185.093H445.807V154.829H439.019V185.093Z" fill="#CC9933"/>
<path fill-rule="evenodd" clip-rule="evenodd" d="M460.86 169.119H466.212V161.132H460.86C458.293 161.132 456.683 162.644 456.683 165.062C456.683 167.22 458.467 169.119 460.86 169.119ZM448.765 183.712L455.9 173.825C453.419 173.177 449.852 170.328 449.852 164.5C449.852 158.845 454.421 154.873 460.991 154.873H473V185.093H466.212V175.25H462.731L456.074 185.093H448.765V183.712Z" fill="#CC9933"/>
<path fill-rule="evenodd" clip-rule="evenodd" d="M250.599 107.277H221.76V149.323H187.461L187.68 1.21191H251.254C281.622 1.21191 304.342 20.4383 304.342 54.6666C304.342 88.0493 278.344 107.277 250.599 107.277ZM248.851 34.1724H221.76V76.4294H247.103C261.741 76.4294 271.572 66.7097 271.572 55.0898C271.572 42.2012 263.052 34.1724 248.851 34.1724Z" fill="#CC9933"/>
<path fill-rule="evenodd" clip-rule="evenodd" d="M310.695 149.322H344.776V1.2113H310.695V149.322Z" fill="#CC9933"/>
<path fill-rule="evenodd" clip-rule="evenodd" d="M351.313 142.561L387.142 94.1772C374.689 91.0074 356.774 77.0621 356.774 48.5392C356.774 20.8609 379.713 1.42236 412.703 1.42236H473V149.322H438.919V101.149H421.441L388.016 149.322H351.313V142.561ZM412.047 71.1466H438.919V32.0585H412.047C399.157 32.0585 391.074 39.4539 391.074 51.2859C391.074 61.8501 400.032 71.1466 412.047 71.1466Z" fill="#CC9933"/>
<path fill-rule="evenodd" clip-rule="evenodd" d="M140.602 71.1466L93.8494 146.998H80.0865L40.3246 72.2032L33.3339 149.322H1L11.9234 1.21113L38.7961 1L89.9167 95.6561L147.593 1L169.222 1.21113L180.363 149.322H148.249L140.602 71.1466Z" fill="#CC9933"/>
</svg>
