<svg width="604" height="192" viewBox="0 0 604 192" fill="none" xmlns="http://www.w3.org/2000/svg">
<path fill-rule="evenodd" clip-rule="evenodd" d="M325.028 172.732H336.831V179.24H325.028V191H318.072V159.536H339.613V166H325.028V172.732Z" fill="#CC9933"/>
<path fill-rule="evenodd" clip-rule="evenodd" d="M358.282 165.461C352.313 165.461 349.216 169.86 349.216 175.425C349.216 180.677 352.313 185.031 358.282 185.031C364.25 185.031 367.347 180.811 367.347 175.425C367.347 169.95 364.205 165.461 358.282 165.461ZM358.282 191.853C350.518 191.853 342.574 186.287 342.574 175.291C342.574 163.935 350.518 158.638 358.282 158.638C366.09 158.638 373.989 164.519 373.989 175.425C373.989 186.422 366.045 191.853 358.282 191.853Z" fill="#CC9933"/>
<path fill-rule="evenodd" clip-rule="evenodd" d="M392.253 191.449C383.502 191.449 378.161 185.12 378.206 175.291C378.206 170.129 378.251 164.698 378.251 159.536H385.117V174.527C385.117 181.575 388.035 184.448 392.253 184.448C396.067 184.448 399.074 180.856 399.074 174.348V159.536H405.985V174.887C405.985 185.075 400.735 191.449 392.253 191.449Z" fill="#CC9933"/>
<path fill-rule="evenodd" clip-rule="evenodd" d="M417.742 173.091C417.742 179.061 417.697 185.075 417.697 191.001H410.92V159.536H415.139L430.263 176.638L430.307 159.536H436.994V191.001H433.628L417.742 173.091Z" fill="#CC9933"/>
<path fill-rule="evenodd" clip-rule="evenodd" d="M453.553 165.82H449.379C449.379 172.194 449.335 178.299 449.335 184.672H453.418C459.476 184.672 463.157 180.363 463.157 175.426C463.157 170.264 460.598 165.82 453.553 165.82ZM453.957 191.001H442.378V159.536H455.213C464.054 159.536 469.619 166.987 469.619 175.246C469.619 184.223 463.471 191.001 453.957 191.001Z" fill="#CC9933"/>
<path fill-rule="evenodd" clip-rule="evenodd" d="M481.331 178.747H489.05L485.235 168.873L481.331 178.747ZM491.428 185.121H478.952L476.574 191.001H469.708L482.766 159.447H488.152L500.628 191.001H493.582L491.428 185.121Z" fill="#CC9933"/>
<path fill-rule="evenodd" clip-rule="evenodd" d="M515.347 191.001H508.257V166H498.069V159.537H525.49V166H515.347V191.001Z" fill="#CC9933"/>
<path fill-rule="evenodd" clip-rule="evenodd" d="M529.886 191H536.887V159.536H529.886V191Z" fill="#CC9933"/>
<path fill-rule="evenodd" clip-rule="evenodd" d="M557.665 165.461C551.697 165.461 548.599 169.86 548.599 175.425C548.599 180.677 551.697 185.031 557.665 185.031C563.633 185.031 566.73 180.811 566.73 175.425C566.73 169.95 563.588 165.461 557.665 165.461ZM557.665 191.853C549.901 191.853 541.958 186.287 541.958 175.291C541.958 163.935 549.901 158.638 557.665 158.638C565.474 158.638 573.372 164.519 573.372 175.425C573.372 186.422 565.429 191.853 557.665 191.853Z" fill="#CC9933"/>
<path fill-rule="evenodd" clip-rule="evenodd" d="M584.366 173.091C584.366 179.061 584.321 185.075 584.321 191.001H577.544V159.536H581.763L596.887 176.638L596.931 159.536H603.618V191.001H600.252L584.366 173.091Z" fill="#CC9933"/>
<path fill-rule="evenodd" clip-rule="evenodd" d="M143.303 73.341L95.5188 151.489H81.451L40.812 74.4292L33.6667 153.883H0.618652L11.7832 1.28841L39.2485 1.07056L91.4986 98.5926L150.448 1.07056L172.555 1.28841L183.942 153.883H151.119L143.303 73.341Z" fill="#CC9933"/>
<path fill-rule="evenodd" clip-rule="evenodd" d="M256.32 32.6341H222.156V63.7632C233.768 63.7632 254.534 63.981 254.534 63.981C269.495 63.981 275.3 55.9262 275.3 47.8724C275.3 40.0354 271.281 32.6341 256.32 32.6341ZM233.321 96.4151H222.156V153.883H187.769L187.546 1.28821H261.679C292.717 1.28821 309.017 19.5731 309.017 47.4367C309.017 70.0753 290.931 87.9256 270.834 93.5853L312.367 146.264V153.883H279.096L233.321 96.4151Z" fill="#CC9933"/>
<path fill-rule="evenodd" clip-rule="evenodd" d="M317.931 153.882H352.764V1.28772H317.931V153.882Z" fill="#CC9933"/>
<path fill-rule="evenodd" clip-rule="evenodd" d="M443.822 153.883H408.541V95.1092L357.631 7.1648V1.28833H392.019L428.639 64.4158L463.025 1.28833H494.957V6.94798L443.822 96.4152V153.883Z" fill="#CC9933"/>
<path fill-rule="evenodd" clip-rule="evenodd" d="M507.603 94.4558H546.01L527.029 46.5656L507.603 94.4558ZM557.843 125.367H495.768L483.934 153.883H449.77L514.748 0.852783H541.543L603.619 153.883H568.561L557.843 125.367Z" fill="#CC9933"/>
</svg>
